<svg width="44" height="50" viewBox="0 0 44 50" fill="none" xmlns="http://www.w3.org/2000/svg">
<path d="M22.0004 0C10.2829 0 0.750366 9.5325 0.750366 21.25C0.750366 26.295 2.56162 31.1912 5.86662 35.06C6.24412 35.4888 15.1504 45.6087 18.1254 48.445C19.2116 49.4813 20.6054 50 22.0004 50C23.3954 50 24.7891 49.4813 25.8766 48.445C29.3354 45.1463 37.7816 35.4637 38.1516 35.0387C41.4391 31.1912 43.2504 26.295 43.2504 21.25C43.2504 9.5325 33.7179 0 22.0004 0ZM22.0004 27.5C18.5491 27.5 15.7504 24.7013 15.7504 21.25C15.7504 17.7987 18.5491 15 22.0004 15C25.4516 15 28.2504 17.7987 28.2504 21.25C28.2504 24.7013 25.4516 27.5 22.0004 27.5Z" fill="#FF3333"/>
</svg>
