<svg width="0" height="0" class="hidden">

    <symbol id="arrow_left" xmlns="http://www.w3.org/2000/svg" viewBox="0 0 14 26">
      <path d="M122.4585,83.5835a1,1,0,0,0,.707-1.707l-11.293-11.293,11.293-11.293a.9999.9999,0,1,0-1.41407-1.41407l-12,12a.99965.99965,0,0,0,0,1.41407l12,12A.9968.9968,0,0,0,122.4585,83.5835Z" transform="translate(-109.4585 -57.5835)"></path>
    </symbol>
    
      <symbol id="arrow_right" xmlns="http://www.w3.org/2000/svg" viewBox="0 0 14 26">
        <path d="M110.4585,83.5835a1,1,0,0,1-.707-1.707l11.293-11.293-11.293-11.293a.9999.9999,0,0,1,1.41407-1.41407l12,12a.99965.99965,0,0,1,0,1.41407l-12,12A.99678.99678,0,0,1,110.4585,83.5835Z" transform="translate(-109.4585 -57.5835)"></path>
      </symbol>


</svg>