<svg width="0" height="0" class="hidden">

    <symbol id="arrow_left" xmlns="http://www.w3.org/2000/svg" viewBox="0 0 14 26">
      <path d="M122.4585,83.5835a1,1,0,0,0,.707-1.707l-11.293-11.293,11.293-11.293a.9999.9999,0,1,0-1.41407-1.41407l-12,12a.99965.99965,0,0,0,0,1.41407l12,12A.9968.9968,0,0,0,122.4585,83.5835Z" transform="translate(-109.4585 -57.5835)"></path>
    </symbol>
    
    <symbol id="arrow_right" xmlns="http://www.w3.org/2000/svg" viewBox="0 0 14 26">
      <path d="M110.4585,83.5835a1,1,0,0,1-.707-1.707l11.293-11.293-11.293-11.293a.9999.9999,0,0,1,1.41407-1.41407l12,12a.99965.99965,0,0,1,0,1.41407l-12,12A.99678.99678,0,0,1,110.4585,83.5835Z" transform="translate(-109.4585 -57.5835)"></path>
    </symbol>

    <symbol id="tg" xmlns="http://www.w3.org/2000/svg" viewBox="0 0 32 32">
      <path id="path218" d="M32,16.00012A16,16,0,1,1,16.00011,0,15.9999,15.9999,0,0,1,32,16.00012"></path>
      <path d="M22.89634,9.52731,20.34589,22.38649a.94407.94407,0,0,1-1.33764.46368l-5.8856-4.51234-2.14022-1.03437L7.37974,16.0906s-.5529-.19615-.6064-.62417.62422-.65994.62422-.65994L21.71922,9.1884S22.89634,8.67122,22.89634,9.52731Z"></path>
      <path d="M12.67025,22.24207s-.17182-.01609-.38585-.6939-1.302-4.24471-1.302-4.24471l8.65007-5.49328s.49937-.30317.48155,0c0,0,.0892.0535-.17833.30321s-6.79523,6.11743-6.79523,6.11743"></path>
      <path d="M15.37934,20.068l-2.328,2.12257a.408.408,0,0,1-.38108.05152l.44576-3.94259"></path>
    </symbol>

    <symbol id="vk" xmlns="http://www.w3.org/2000/svg" viewBox="0 0 32 32">
      <path id="path218" d="M32,16.00012A16,16,0,1,1,16.00011,0,15.9999,15.9999,0,0,1,32,16.00012"></path>
      <path id="path220" d="M22.96989,20.84244A11.12524,11.12524,0,0,0,20.12046,17.426a.45241.45241,0,0,1-.04717-.62765,26.748,26.748,0,0,0,2.673-4.0652.45286.45286,0,0,0-.39542-.67362H19.97454a21.46445,21.46445,0,0,1-2.9508,4.38394.33968.33968,0,0,1-.56423-.25451v-3.787a.33961.33961,0,0,0-.33962-.33962H13.203a.34017.34017,0,0,0-.2493.57246l.047.05058a2.32144,2.32144,0,0,1,.59172,1.562v2.64891a.33973.33973,0,0,1-.48153.30871c-1.38718-.63609-2.36208-2.908-3.08126-4.99273a.2265.2265,0,0,0-.214-.15275H7.46a.33978.33978,0,0,0-.33821.37193,9.31731,9.31731,0,0,0,.62946,2.53992c1.07225,2.70913,3.284,5.46985,6.20428,6.24784.49277.13127,2.504.64592,2.504-.286v-1.89c.4468-1.20733,2.10556.76314,3.65071,2.436H22.556a.45227.45227,0,0,0,.41389-.63669"></path>
    </symbol>



</svg>