<svg id="Слой_1" data-name="Слой 1" xmlns="http://www.w3.org/2000/svg" viewBox="0 0 32 32"><defs><style>.cls-1{fill:#2fa3dc;}.cls-2{fill:#fff;}.cls-3{fill:#c7dfeb;}.cls-4{fill:#a8c9de;}</style></defs><title>tg</title><path id="path218" class="cls-1" d="M32,16.00012A16,16,0,1,1,16.00011,0,15.9999,15.9999,0,0,1,32,16.00012"/><path class="cls-2" d="M22.89634,9.52731,20.34589,22.38649a.94407.94407,0,0,1-1.33764.46368l-5.8856-4.51234-2.14022-1.03437L7.37974,16.0906s-.5529-.19615-.6064-.62417.62422-.65994.62422-.65994L21.71922,9.1884S22.89634,8.67122,22.89634,9.52731Z"/><path class="cls-3" d="M12.67025,22.24207s-.17182-.01609-.38585-.6939-1.302-4.24471-1.302-4.24471l8.65007-5.49328s.49937-.30317.48155,0c0,0,.0892.0535-.17833.30321s-6.79523,6.11743-6.79523,6.11743"/><path class="cls-4" d="M15.37934,20.068l-2.328,2.12257a.408.408,0,0,1-.38108.05152l.44576-3.94259"/></svg>