<svg id="Слой_1" data-name="Слой 1" xmlns="http://www.w3.org/2000/svg" viewBox="0 0 32 32"><defs><style>.cls-1{fill:#4e7cbf;}.cls-2{fill:#fff;}</style></defs><title>vk</title><path id="path218" class="cls-1" d="M32,16.00012A16,16,0,1,1,16.00011,0,15.9999,15.9999,0,0,1,32,16.00012"/><path id="path220" class="cls-2" d="M22.96989,20.84244A11.12524,11.12524,0,0,0,20.12046,17.426a.45241.45241,0,0,1-.04717-.62765,26.748,26.748,0,0,0,2.673-4.0652.45286.45286,0,0,0-.39542-.67362H19.97454a21.46445,21.46445,0,0,1-2.9508,4.38394.33968.33968,0,0,1-.56423-.25451v-3.787a.33961.33961,0,0,0-.33962-.33962H13.203a.34017.34017,0,0,0-.2493.57246l.047.05058a2.32144,2.32144,0,0,1,.59172,1.562v2.64891a.33973.33973,0,0,1-.48153.30871c-1.38718-.63609-2.36208-2.908-3.08126-4.99273a.2265.2265,0,0,0-.214-.15275H7.46a.33978.33978,0,0,0-.33821.37193,9.31731,9.31731,0,0,0,.62946,2.53992c1.07225,2.70913,3.284,5.46985,6.20428,6.24784.49277.13127,2.504.64592,2.504-.286v-1.89c.4468-1.20733,2.10556.76314,3.65071,2.436H22.556a.45227.45227,0,0,0,.41389-.63669"/></svg>